<?xml version="1.0" encoding="UTF-8" standalone="no"?>
<svg
   viewBox="0 0 21684.617 2169.9226"
   version="1.1"
   id="svg22"
   width="21684.617"
   height="2169.9226"
   xmlns:xlink="http://www.w3.org/1999/xlink"
   xmlns="http://www.w3.org/2000/svg"
   xmlns:svg="http://www.w3.org/2000/svg">
  <defs
     id="defs9">
    <linearGradient
       id="a"
       x1="59.990002"
       y1="44.16"
       x2="80.010002"
       y2="1.23"
       gradientUnits="userSpaceOnUse">
      <stop
         offset="0"
         stop-color="#d4202c"
         id="stop1" />
      <stop
         offset="0.1"
         stop-color="#dc3d29"
         stop-opacity="0.79"
         id="stop2" />
      <stop
         offset="0.2"
         stop-color="#e45926"
         stop-opacity="0.58"
         id="stop3" />
      <stop
         offset="0.32"
         stop-color="#ea7123"
         stop-opacity="0.4"
         id="stop4" />
      <stop
         offset="0.43"
         stop-color="#f08521"
         stop-opacity="0.25"
         id="stop5" />
      <stop
         offset="0.55"
         stop-color="#f4941f"
         stop-opacity="0.14"
         id="stop6" />
      <stop
         offset="0.68"
         stop-color="#f79f1e"
         stop-opacity="0.06"
         id="stop7" />
      <stop
         offset="0.82"
         stop-color="#f8a51d"
         stop-opacity="0.02"
         id="stop8" />
      <stop
         offset="1"
         stop-color="#f9a71d"
         stop-opacity="0"
         id="stop9" />
    </linearGradient>
    <linearGradient
       id="b"
       x1="1777.48"
       y1="1048.76"
       x2="1797.5"
       y2="1005.83"
       gradientTransform="rotate(180,904.40447,525.945)"
       xlink:href="#a" />
    <linearGradient
       xlink:href="#a"
       id="linearGradient2"
       gradientUnits="userSpaceOnUse"
       x1="59.990002"
       y1="44.16"
       x2="80.010002"
       y2="1.23"
       gradientTransform="translate(5.3089476,-0.71)" />
  </defs>
  <title
     id="title9">cn-logo</title>
  <path
     d="m 82.478948,0 a 7.87,7.87 0 0 0 -6.88,4.05 l -0.16,0.33 -6.13,12.16 -7.8,15.37 5.11,10.07 0.28,0.55 a 8,8 0 0 0 3.41,3.23 8.05,8.05 0 0 0 3.41,-3.23 l 0.28,-0.55 15.31,-30.21 0.37,-0.73 a 7.86,7.86 0 0 0 -7.19,-11 z"
     fill="#ff5100"
     id="path9" />
  <path
     d="m 35.158948,14.63 -5.1,-10 -0.28,-0.55 a 7.89,7.89 0 0 0 -3.4,-3.22 7.92,7.92 0 0 0 -3.4,3.21 l -0.29,0.56 -15.3300004,30.18 -0.37,0.72 a 7.86,7.86 0 0 0 14.0600004,7 l 0.17,-0.32 6.17,-12.16 7.79,-15.36 z"
     fill="#ff5100"
     id="path10" />
  <path
     d="m 82.458948,0 a 7.86,7.86 0 0 0 -6.87,4.05 l -0.17,0.33 -6.17,12.16 -7.81,15.37 5.12,10.07 0.28,0.55 a 7.94,7.94 0 0 0 3.41,3.23 7.94,7.94 0 0 0 3.41,-3.23 l 0.29,-0.55 15.36,-30.21 0.36,-0.73 a 7.86,7.86 0 0 0 -7.19,-11 z"
     fill="url(#a)"
     id="path11"
     style="fill:url(#linearGradient2)" />
  <path
     d="m 14.168948,46.58 a 7.86,7.86 0 0 0 6.87,-4 l 0.17,-0.33 6.18,-12.16 7.8,-15.37 -5.11,-10.12 -0.28,-0.55 a 8,8 0 0 0 -3.42,-3.23 8,8 0 0 0 -3.41,3.23 l -0.28,0.55 -15.3800004,30.21 -0.37,0.73 a 7.86,7.86 0 0 0 7.1900004,11 z"
     fill="url(#b)"
     id="path12"
     style="fill:url(#b)" />
  <path
     d="m 35.158948,14.63 -5.1,-10 -0.28,-0.55 a 7.94,7.94 0 0 0 -3.41,-3.23 8.31,8.31 0 0 1 1.49,-0.56 8.16,8.16 0 0 1 2,-0.25 h 10.68 a 7.92,7.92 0 0 1 6.86,4 l 0.28,0.55 13.81,27.36 5.09,10 0.28,0.55 a 8,8 0 0 0 3.45,3.26 8.05,8.05 0 0 1 -3.47,0.81 h -10.74 a 7.91,7.91 0 0 1 -6.85,-4 l -0.29,-0.55 z"
     fill="#ff8c44"
     id="path13" />
  <path
     d="m 103.30895,23.82 a 0.76,0.76 0 0 1 0.84,-0.84 h 0.6 a 0.75,0.75 0 0 1 0.8,0.84 v 1.94 a 5.75,5.75 0 0 1 -0.13,1.21 h 0.07 a 7.43,7.43 0 0 1 6.8,-4.39 c 4.19,0 5.66,2.38 5.66,6.53 V 39 a 0.76,0.76 0 0 1 -0.84,0.84 h -0.63 a 0.74,0.74 0 0 1 -0.81,-0.84 v -9.28 c 0,-2.65 -0.43,-5 -3.68,-5 -3.59,0 -6.4,2.95 -6.4,6.88 V 39 a 0.74,0.74 0 0 1 -0.81,0.84 h -0.63 a 0.76,0.76 0 0 1 -0.84,-0.84 z"
     fill="#6e6f71"
     id="path14" />
  <path
     d="m 130.19895,29.52 h 1 v -0.54 c 0,-3.25 -1.78,-4.36 -4.16,-4.36 a 8,8 0 0 0 -4.09,1.18 0.79,0.79 0 0 1 -1.13,-0.27 l -0.21,-0.34 a 0.76,0.76 0 0 1 0.24,-1.14 10.34,10.34 0 0 1 5.36,-1.47 c 4,0 6.27,2.24 6.27,6.47 v 10 a 0.74,0.74 0 0 1 -0.81,0.84 h -0.53 a 0.75,0.75 0 0 1 -0.84,-0.84 v -1.39 a 7.14,7.14 0 0 1 0.1,-1.27 h -0.09 a 6.25,6.25 0 0 1 -5.7,3.9 c -2.85,0 -5.7,-1.67 -5.7,-4.92 0,-5.55 7.04,-5.85 10.29,-5.85 z m -4.19,8.77 c 3.25,0 5.16,-3.35 5.16,-6.3 v -0.8 h -0.94 c -2.65,0 -8,0.1 -8,3.88 0.02,1.62 1.27,3.22 3.78,3.22 z"
     fill="#6e6f71"
     id="path15" />
  <path
     d="m 136.69895,23.82 a 0.76,0.76 0 0 1 0.84,-0.84 h 0.6 a 0.75,0.75 0 0 1 0.8,0.84 v 1.94 a 5.75,5.75 0 0 1 -0.13,1.21 h 0.07 a 7.15,7.15 0 0 1 6.2,-4.39 c 3.11,0 4.72,1.44 5.19,4.22 h 0.04 a 7.16,7.16 0 0 1 6.2,-4.22 c 4.09,0 5.59,2.38 5.59,6.53 V 39 a 0.76,0.76 0 0 1 -0.83,0.84 h -0.61 a 0.76,0.76 0 0 1 -0.84,-0.84 v -9.32 c 0,-2.74 -0.56,-5 -3.61,-5 -3.39,0 -5.67,3.55 -5.67,7 v 7.3 a 0.73,0.73 0 0 1 -0.8,0.84 h -0.64 a 0.76,0.76 0 0 1 -0.84,-0.84 v -9.3 c 0,-2.54 -0.37,-5 -3.55,-5 -3.42,0 -5.76,3.62 -5.76,7 v 7.3 a 0.74,0.74 0 0 1 -0.81,0.84 h -0.63 a 0.76,0.76 0 0 1 -0.84,-0.84 z"
     fill="#6e6f71"
     id="path16" />
  <path
     d="m 172.58895,22.58 c 4.49,0 7,3.25 7,8 a 0.84,0.84 0 0 1 -0.88,0.84 h -12.09 c 0.1,4.29 3.05,6.74 6.54,6.74 a 7.17,7.17 0 0 0 4.42,-1.55 0.7,0.7 0 0 1 1.11,0.2 l 0.27,0.41 a 0.78,0.78 0 0 1 -0.24,1.1 9.51,9.51 0 0 1 -5.63,1.97 8.51,8.51 0 0 1 -8.78,-8.86 c 0,-5.53 3.72,-8.85 8.28,-8.85 z m 4.72,7.17 c -0.14,-3.55 -2.28,-5.3 -4.8,-5.3 a 5.82,5.82 0 0 0 -5.8,5.3 z"
     fill="#6e6f71"
     id="path17" />
  <path
     d="m 190.47895,22.58 a 8.84,8.84 0 0 1 5.6,1.91 0.72,0.72 0 0 1 0.1,1.14 l -0.23,0.37 c -0.3,0.47 -0.67,0.47 -1.14,0.17 a 7,7 0 0 0 -4.26,-1.55 6.5,6.5 0 0 0 -6.57,6.81 6.5,6.5 0 0 0 6.6,6.77 7.35,7.35 0 0 0 4.73,-1.78 0.67,0.67 0 0 1 1.11,0.2 l 0.23,0.34 a 0.8,0.8 0 0 1 -0.2,1.13 9.32,9.32 0 0 1 -6,2.15 8.53,8.53 0 0 1 -8.84,-8.81 8.59,8.59 0 0 1 8.87,-8.85 z"
     fill="#6e6f71"
     id="path18" />
  <path
     d="m 198.95895,17.12 a 0.73,0.73 0 0 1 0.8,-0.84 h 0.64 a 0.76,0.76 0 0 1 0.84,0.84 v 8.41 a 7.18,7.18 0 0 1 -0.13,1.37 h 0.06 a 7.43,7.43 0 0 1 6.74,-4.32 c 4.19,0 5.66,2.38 5.66,6.53 V 39 c 0,0.54 -0.26,0.84 -0.8,0.84 h -0.64 a 0.76,0.76 0 0 1 -0.84,-0.84 v -9.28 c 0,-2.65 -0.4,-5 -3.68,-5 -3.55,0 -6.37,2.92 -6.37,7 v 7.3 a 0.76,0.76 0 0 1 -0.84,0.84 h -0.64 a 0.73,0.73 0 0 1 -0.8,-0.84 z"
     fill="#6e6f71"
     id="path19" />
  <path
     d="m 224.05895,22.58 c 4.49,0 7,3.25 7,8 a 0.84,0.84 0 0 1 -0.87,0.84 h -12.09 c 0.1,4.29 3.05,6.74 6.53,6.74 a 7.2,7.2 0 0 0 4.43,-1.55 0.69,0.69 0 0 1 1.1,0.2 l 0.27,0.41 a 0.78,0.78 0 0 1 -0.23,1.1 9.57,9.57 0 0 1 -5.63,1.97 8.52,8.52 0 0 1 -8.82,-8.81 c 0,-5.58 3.75,-8.9 8.31,-8.9 z m 4.73,7.17 c -0.13,-3.55 -2.28,-5.3 -4.8,-5.3 a 5.8,5.8 0 0 0 -5.79,5.3 z"
     fill="#6e6f71"
     id="path20" />
  <path
     d="m 242.42895,29.52 h 1 v -0.54 c 0,-3.25 -1.78,-4.36 -4.16,-4.36 a 7.85,7.85 0 0 0 -4.08,1.18 0.8,0.8 0 0 1 -1.14,-0.27 l -0.2,-0.34 a 0.76,0.76 0 0 1 0.23,-1.14 10.34,10.34 0 0 1 5.36,-1.47 c 4,0 6.27,2.24 6.27,6.47 v 10 a 0.74,0.74 0 0 1 -0.81,0.84 h -0.59 a 0.75,0.75 0 0 1 -0.84,-0.84 v -1.39 a 7.14,7.14 0 0 1 0.1,-1.27 h -0.07 a 6.25,6.25 0 0 1 -5.66,3.9 c -2.85,0 -5.7,-1.67 -5.7,-4.92 0,-5.55 7.04,-5.85 10.29,-5.85 z m -4.19,8.77 c 3.25,0 5.16,-3.35 5.16,-6.3 v -0.8 h -0.94 c -2.65,0 -8,0.1 -8,3.88 0.02,1.62 1.26,3.22 3.78,3.22 z"
     fill="#6e6f71"
     id="path21" />
  <path
     d="m 248.95895,23.82 a 0.74,0.74 0 0 1 0.81,-0.84 h 0.54 a 0.72,0.72 0 0 1 0.81,0.77 v 1.21 a 6,6 0 0 1 -0.1,1.14 h 0.06 a 6.28,6.28 0 0 1 5.9,-3.52 c 4.53,0 7.34,3.62 7.34,8.85 0,5.23 -3.19,8.86 -7.58,8.86 a 6.13,6.13 0 0 1 -5.57,-3.42 h -0.06 a 7.84,7.84 0 0 1 0.13,1.48 v 7.4 a 0.76,0.76 0 0 1 -0.84,0.84 h -0.63 a 0.74,0.74 0 0 1 -0.81,-0.84 z m 7.54,14.38 c 3,0 5.47,-2.48 5.47,-6.77 0,-4.13 -2.22,-6.77 -5.33,-6.77 -2.82,0 -5.47,2 -5.47,6.8 0,3.38 1.88,6.74 5.33,6.74 z"
     fill="#6e6f71"
     id="path22" />
</svg>
